<?xml version="1.0" encoding="UTF-8"?>
<svg id="a" data-name="Capa 1" xmlns="http://www.w3.org/2000/svg" width="1000" height="1000" viewBox="0 0 1000 1000">
  <path d="M823.396,287.383c-7.563,0-13.715,6.152-13.715,13.715V819.038l-.053,.92c-3.64,64.194-57.321,114.318-120.965,114.324-1.681,0-3.363-.036-5.059-.106H316.394c-65.818,2.705-122.285-48.329-126.024-114.219l-.052-1.84V301.097c0-7.563-6.153-13.715-13.716-13.715s-13.715,6.152-13.715,13.715V817.646c2.467,81.371,70.573,145.975,152.001,143.97l.775-.008,369.447,.008c81.464,1.937,149.535-62.602,152.003-143.97V301.097c0-7.563-6.154-13.715-13.717-13.715Z"/>
  <path d="M826.285,176.937h-173.972V52.053c0-7.563-6.152-13.715-13.715-13.715H361.401c-7.563,0-13.716,6.152-13.716,13.715v124.884H173.716c-7.563,0-13.716,6.152-13.716,13.715s6.153,13.716,13.716,13.716H826.285c7.563,0,13.715-6.153,13.715-13.716s-6.152-13.715-13.715-13.715Zm-201.401,0h-249.767V65.769h249.767v111.168Z"/>
  <path d="M407.601,730.609c7.563,0,13.715-6.152,13.715-13.715V393.497c0-7.563-6.152-13.716-13.715-13.716s-13.716,6.153-13.716,13.716v323.397c0,7.563,6.153,13.715,13.716,13.715Z"/>
  <path d="M592.4,730.609c7.563,0,13.715-6.152,13.715-13.715V393.497c0-7.563-6.152-13.716-13.715-13.716s-13.717,6.153-13.717,13.716v323.397c0,7.563,6.154,13.715,13.717,13.715Z"/>
</svg>