<?xml version="1.0" encoding="UTF-8"?>
<svg id="a" data-name="Capa 1" xmlns="http://www.w3.org/2000/svg" width="1000" height="1000" viewBox="0 0 1000 1000">
  <path d="M262.777,741.358c106.277,98.96,215.827,163.189,220.656,166.001,5.064,2.967,10.844,4.452,16.61,4.451,5.753,0,11.495-1.478,16.498-4.434,5.576-3.257,115.212-67.809,220.685-166.022,60.955-56.788,109.556-114.347,144.453-171.083,44.312-72.068,66.781-143.301,66.781-211.701,.052-54.251-15.977-106.68-46.359-151.631-30.421-44.947-73.123-79.338-123.489-99.456-50.354-20.112-104.984-24.619-158.001-13.031-44.783,9.809-86.281,30.84-120.606,61.046-34.323-30.193-75.831-51.231-120.621-61.047-19.086-4.175-38.573-6.292-57.92-6.292-34.31,0-67.98,6.502-100.076,19.325-50.366,20.118-93.068,54.509-123.497,99.467-30.375,44.94-46.403,97.361-46.352,151.577,0,68.435,22.469,139.676,66.783,211.747,34.896,56.733,83.496,114.292,144.455,171.083ZM524.134,223.904l.415-.459c27.63-31.503,63.666-53.521,104.213-63.674,40.536-10.145,82.665-7.712,121.815,7.036,39.106,14.755,72.346,40.743,96.119,75.146,23.772,34.437,36.303,74.728,36.237,116.543-.022,53.998-18.174,111.52-53.95,170.967v.003c-29.896,49.698-72.147,100.932-125.576,152.276-81.264,78.039-165.837,135.013-203.423,158.838-38.327-24.259-124.686-82.425-207.093-162.278-52.263-50.648-93.643-101.264-122.981-150.429-35.064-58.862-52.844-115.83-52.844-169.289,.087-54.707,21.413-106.119,60.051-144.767,38.662-38.674,90.061-60.003,144.677-60.058,58.785,.087,114.808,25.491,153.701,69.697l.399,.441c6.188,6.624,14.982,10.422,24.13,10.421,9.146-.001,17.934-3.797,24.109-10.414Z" fill="#897665"/>
</svg>