<?xml version="1.0" encoding="UTF-8"?>
<svg id="a" data-name="Capa 1" xmlns="http://www.w3.org/2000/svg" width="1000" height="1000" viewBox="0 0 1000 1000">
  <path d="M777.828,286.568c-.894-17.024-14.958-30.359-32.016-30.359h-72.561v-7.591c0-95.51-77.724-173.224-173.261-173.237-95.536,0-173.261,77.714-173.261,173.237v7.591h-72.489c-17.045,0-31.098,13.33-31.991,30.327l-32.341,604.298-.028,.944c-.057,9.179,3.179,17.298,9.358,23.479l.078,.077c6.052,5.987,14.073,9.285,22.583,9.285H778.653l.477-.022c8.97-.428,17.07-4.209,22.814-10.647,5.732-6.396,8.616-14.606,8.125-23.133l-32.242-604.248ZM255.63,860.52l28.892-540.211h42.206v52.276c0,17.669,14.375,32.044,32.044,32.044s32.044-14.375,32.044-32.044v-52.276h218.346v53.403c0,17.669,14.375,32.044,32.044,32.044s32.044-14.375,32.044-32.044v-53.403h42.205l28.884,540.211H255.63ZM499.989,139.48c60.178,0,109.153,48.962,109.173,109.138v7.591h-218.346v-7.584c.02-60.162,48.998-109.124,109.173-109.145Z" fill="#897665"/>
</svg>