<?xml version="1.0" encoding="UTF-8"?>
<svg id="a" data-name="Capa 1" xmlns="http://www.w3.org/2000/svg" width="1000" height="1000" viewBox="0 0 1000 1000">
  <path d="M500,489.351c-104.536,0-202.832,40.712-276.784,114.64-73.939,73.952-114.66,172.248-114.66,276.781,0,17.814,14.504,32.308,32.332,32.308H859.136c17.815,0,32.309-14.493,32.309-32.308,0-104.523-40.711-202.819-114.641-276.785-73.947-73.924-172.252-114.636-276.804-114.636Zm-.024,64.7c168.206,0,308.779,128.375,325.223,294.412H174.779c16.458-166.05,157.014-294.412,325.196-294.412Z" fill="#897665"/>
  <path d="M575.67,102.059c-24.252-10.045-49.784-15.138-75.886-15.138-52.632,0-102.225,20.599-139.646,58.006-56.745,56.759-73.581,141.352-42.89,215.519,30.723,74.164,102.438,122.085,182.703,122.085h.03c52.814-.079,102.456-20.679,139.784-58.007,37.315-37.328,57.91-86.961,57.99-139.785,0-39.211-11.527-77.192-33.342-109.847-21.836-32.646-52.523-57.831-88.745-72.833Zm57.447,182.68c0,54.063-32.26,102.364-82.188,123.053-16.357,6.781-33.55,10.22-51.098,10.22-35.42,0-68.808-13.886-94.016-39.104-38.222-38.211-49.553-95.162-28.867-145.09l.346-.839c20.908-49.459,68.963-81.369,122.655-81.369,73.345,.094,133.083,59.826,133.167,133.13Z" fill="#897665"/>
</svg>