<?xml version="1.0" encoding="UTF-8"?>
<svg id="a" data-name="Capa 1" xmlns="http://www.w3.org/2000/svg" width="1000" height="1000" viewBox="0 0 1000 1000">
  <path d="M719.969,692.724c63.332-65.519,102.354-154.678,102.354-252.782,0-200.682-163.267-363.949-363.949-363.949S94.425,239.26,94.425,439.942s163.267,363.949,363.949,363.949c79.333,0,152.815-25.52,212.679-68.774l179.411,179.434c6.098,6.098,14.205,9.457,22.827,9.457s16.729-3.358,22.828-9.457c12.586-12.587,12.585-33.068,0-45.653l-176.151-176.173Zm-261.595,46.6c-165.08,0-299.382-134.302-299.382-299.382S293.294,140.561,458.374,140.561s299.381,134.302,299.381,299.381-134.302,299.382-299.381,299.382Z" fill="#897665"/>
</svg>